# xmcd
#
# Track frame offsets:
#	150
#	9689
#	20436
#	34395
#	48582
#	66218
#	82768
#	99362
#	117129
#	135677
#	152316
#	167988
#	181478
#	197684
#	214466
#	227090
#
# Disc length: 3103 seconds
#
# Revision: 0
# Processed by: cddbd v1.5.2PL0 Copyright (c) Steve Scherf et al.
# Submitted via: EasyCDDAExtractor 2010.4.0.0
#
DISCID=d40c1d10
DTITLE=Jorma Kääriäinen - Kajaanista Memphisiin - Sooloura 1978-2010 [CD2]
DYEAR=2010
DGENRE=Country - Suomi
TTITLE0=Let’s Have a Party
TTITLE1=Red Hot
TTITLE2=Autan isää
TTITLE3=Olet mielessäin
TTITLE4=Until It’s Time for You to Go
TTITLE5=Kuiskaan sen
TTITLE6=Memphis Tennessee
TTITLE7=Pilvenpiirtäjä
TTITLE8=Kädenjälki
TTITLE9=Niin kauan kuin mä laulan
TTITLE10=CC Rider
TTITLE11=Delfiinipoika
TTITLE12=Takaa ajatusten virran
TTITLE13=Ristiretki
TTITLE14=Kirkossa
TTITLE15=In My Way
EXTD=
EXTT0=
EXTT1=
EXTT2=
EXTT3=
EXTT4=
EXTT5=
EXTT6=
EXTT7=
EXTT8=
EXTT9=
EXTT10=
EXTT11=
EXTT12=
EXTT13=
EXTT14=
EXTT15=
PLAYORDER=
